<?xml version="1.0" encoding="UTF-8" standalone="no"?>
<svg width="512" height="512" viewBox="0 0 512 512" fill="none" xmlns="http://www.w3.org/2000/svg">
  <!-- Fundo circular com gradiente -->
  <circle cx="256" cy="256" r="256" fill="url(#blue-gradient)"/>
  
  <!-- Iniciais "EGO" estilizadas -->
  <g>
    <!-- Letra E -->
    <path d="M150 180H270" stroke="white" stroke-width="24" stroke-linecap="round"/>
    <path d="M150 256H250" stroke="white" stroke-width="24" stroke-linecap="round"/>
    <path d="M150 332H270" stroke="white" stroke-width="24" stroke-linecap="round"/>
    <path d="M150 180V332" stroke="white" stroke-width="24" stroke-linecap="round"/>
    
    <!-- Letra G -->
    <path d="M362 200C347.333 186.667 330 180 310 180C290 180 272.667 186.667 258 200C243.333 213.333 236 230 236 250C236 270 243.333 286.667 258 300C272.667 313.333 290 320 310 320C330 320 347.333 313.333 362 300" stroke="white" stroke-width="24" stroke-linecap="round"/>
    <path d="M362 260H310" stroke="white" stroke-width="24" stroke-linecap="round"/>
    <path d="M362 260V300" stroke="white" stroke-width="24" stroke-linecap="round"/>
    
    <!-- Elemento circular para representar o "O" -->
    <circle cx="256" cy="256" r="180" stroke="white" stroke-width="8" stroke-opacity="0.2"/>
  </g>
  
  <!-- Definição do gradiente -->
  <defs>
    <linearGradient id="blue-gradient" x1="0" y1="0" x2="512" y2="512" gradientUnits="userSpaceOnUse">
      <stop offset="0%" stop-color="#3b82f6"/>
      <stop offset="100%" stop-color="#1d4ed8"/>
    </linearGradient>
  </defs>
</svg>
